<svg width="16" height="16" viewBox="0 0 16 16" fill="none" xmlns="http://www.w3.org/2000/svg">
  <path d="M6 2V1C6 0.447715 6.44772 0 7 0H9C9.55228 0 10 0.447715 10 1V2H13C13.5523 2 14 2.44772 14 3C14 3.55228 13.5523 4 13 4H12V13C12 14.1046 11.1046 15 10 15H6C4.89543 15 4 14.1046 4 13V4H3C2.44772 4 2 3.55228 2 3C2 2.44772 2.44772 2 3 2H6ZM7 1V2H9V1H7ZM6 4V13C6 13.5523 6.44772 14 7 14H9C9.55228 14 10 13.5523 10 13V4H6Z" fill="currentColor"/>
  <path d="M7 6C7.55228 6 8 6.44772 8 7V11C8 11.5523 7.55228 12 7 12C6.44772 12 6 11.5523 6 11V7C6 6.44772 6.44772 6 7 6Z" fill="currentColor"/>
  <path d="M10 6C10.5523 6 11 6.44772 11 7V11C11 11.5523 10.5523 12 10 12C9.44772 12 9 11.5523 9 11V7C9 6.44772 9.44772 6 10 6Z" fill="currentColor"/>
</svg> 